<svg width="242" height="242" viewBox="0 0 242 242" fill="none" xmlns="http://www.w3.org/2000/svg">
<rect width="242" height="242" fill="#25261E"/>
<path d="M77.2 121V104.2H82.864C84.752 104.2 86.232 104.648 87.304 105.544C88.392 106.424 88.936 107.744 88.936 109.504C88.936 111.28 88.392 112.624 87.304 113.536C86.232 114.448 84.752 114.904 82.864 114.904H80.56V121H77.2ZM80.56 111.88H82.672C83.584 111.88 84.288 111.688 84.784 111.304C85.28 110.92 85.528 110.328 85.528 109.528C85.528 108.728 85.28 108.144 84.784 107.776C84.288 107.392 83.584 107.2 82.672 107.2H80.56V111.88ZM95.2574 121.312C94.1214 121.312 93.0814 121.024 92.1374 120.448C91.2094 119.856 90.4654 119.072 89.9054 118.096C89.3614 117.104 89.0894 116.008 89.0894 114.808C89.0894 113.912 89.2494 113.072 89.5694 112.288C89.8894 111.488 90.3294 110.792 90.8894 110.2C91.4494 109.592 92.0974 109.12 92.8334 108.784C93.5854 108.432 94.3934 108.256 95.2574 108.256C96.3454 108.256 97.1934 108.464 97.8014 108.88C98.4094 109.28 98.8814 109.816 99.2174 110.488V108.52H102.433V121H99.2894V118.96C98.9534 119.664 98.4734 120.232 97.8494 120.664C97.2414 121.096 96.3774 121.312 95.2574 121.312ZM95.7854 118.384C96.5054 118.384 97.1214 118.224 97.6334 117.904C98.1614 117.568 98.5694 117.128 98.8574 116.584C99.1454 116.04 99.2894 115.448 99.2894 114.808C99.2894 114.152 99.1454 113.552 98.8574 113.008C98.5694 112.464 98.1614 112.024 97.6334 111.688C97.1214 111.352 96.5054 111.184 95.7854 111.184C95.0974 111.184 94.4894 111.352 93.9614 111.688C93.4494 112.008 93.0494 112.44 92.7614 112.984C92.4734 113.528 92.3294 114.128 92.3294 114.784C92.3294 115.408 92.4734 116 92.7614 116.56C93.0494 117.104 93.4494 117.544 93.9614 117.88C94.4894 118.216 95.0974 118.384 95.7854 118.384ZM109.254 107.896L110.454 103.48H113.862L111.51 107.896H109.254ZM109.086 121C107.854 121 106.91 120.696 106.254 120.088C105.598 119.48 105.27 118.496 105.27 117.136V111.28H103.518V108.52H105.27V106L108.51 105.664V108.52H111.15V111.28H108.51V116.968C108.51 117.736 108.846 118.12 109.518 118.12H110.862V121H109.086ZM118.401 121.312C117.121 121.312 115.977 121.016 114.969 120.424C113.961 119.832 113.169 119.048 112.593 118.072C112.033 117.08 111.753 115.984 111.753 114.784C111.753 113.584 112.033 112.488 112.593 111.496C113.169 110.504 113.961 109.712 114.969 109.12C115.977 108.528 117.121 108.232 118.401 108.232C119.697 108.232 120.841 108.528 121.833 109.12C122.841 109.712 123.625 110.504 124.185 111.496C124.761 112.488 125.049 113.584 125.049 114.784C125.049 115.984 124.761 117.08 124.185 118.072C123.625 119.048 122.841 119.832 121.833 120.424C120.841 121.016 119.697 121.312 118.401 121.312ZM118.401 118.36C119.089 118.36 119.689 118.2 120.201 117.88C120.713 117.544 121.105 117.104 121.377 116.56C121.665 116.016 121.809 115.424 121.809 114.784C121.809 114.128 121.665 113.528 121.377 112.984C121.105 112.44 120.713 112.008 120.201 111.688C119.689 111.352 119.089 111.184 118.401 111.184C117.713 111.184 117.113 111.352 116.601 111.688C116.089 112.008 115.689 112.44 115.401 112.984C115.129 113.528 114.993 114.128 114.993 114.784C114.993 115.424 115.129 116.016 115.401 116.56C115.689 117.104 116.089 117.544 116.601 117.88C117.113 118.2 117.713 118.36 118.401 118.36ZM138.024 121.312C136.776 121.312 135.616 121.088 134.544 120.64C133.488 120.192 132.56 119.568 131.76 118.768C130.976 117.968 130.36 117.048 129.912 116.008C129.48 114.952 129.264 113.824 129.264 112.624C129.264 111.424 129.48 110.296 129.912 109.24C130.36 108.184 130.976 107.256 131.76 106.456C132.56 105.656 133.488 105.032 134.544 104.584C135.616 104.12 136.776 103.888 138.024 103.888C139.272 103.888 140.424 104.12 141.48 104.584C142.536 105.032 143.456 105.656 144.24 106.456C145.024 107.256 145.632 108.184 146.064 109.24C146.512 110.296 146.736 111.424 146.736 112.624C146.736 113.824 146.512 114.952 146.064 116.008C145.632 117.048 145.024 117.968 144.24 118.768C143.456 119.568 142.536 120.192 141.48 120.64C140.424 121.088 139.272 121.312 138.024 121.312ZM138.024 118.192C139.112 118.192 140.04 117.944 140.808 117.448C141.592 116.936 142.192 116.256 142.608 115.408C143.04 114.56 143.256 113.632 143.256 112.624C143.256 111.6 143.04 110.664 142.608 109.816C142.192 108.968 141.592 108.288 140.808 107.776C140.04 107.264 139.112 107.008 138.024 107.008C136.936 107.008 135.992 107.264 135.192 107.776C134.408 108.288 133.8 108.968 133.368 109.816C132.952 110.664 132.744 111.6 132.744 112.624C132.744 113.632 132.952 114.56 133.368 115.408C133.8 116.256 134.408 116.936 135.192 117.448C135.992 117.944 136.936 118.192 138.024 118.192ZM148.304 121V108.52H151.496V110.344C152.152 108.936 153.424 108.232 155.312 108.232C156.208 108.232 157.016 108.44 157.736 108.856C158.456 109.272 159.024 109.864 159.44 110.632C159.856 111.4 160.064 112.312 160.064 113.368V121H156.824V114.16C156.824 113.072 156.576 112.288 156.08 111.808C155.584 111.312 154.936 111.064 154.136 111.064C153.448 111.064 152.84 111.312 152.312 111.808C151.8 112.288 151.544 113.072 151.544 114.16V121H148.304ZM167.562 121.312C166.426 121.312 165.386 121.024 164.442 120.448C163.514 119.856 162.77 119.072 162.21 118.096C161.666 117.104 161.394 116.008 161.394 114.808C161.394 113.912 161.554 113.072 161.874 112.288C162.194 111.488 162.634 110.792 163.194 110.2C163.754 109.592 164.402 109.12 165.138 108.784C165.89 108.432 166.698 108.256 167.562 108.256C168.634 108.256 169.474 108.456 170.082 108.856C170.69 109.256 171.162 109.784 171.498 110.44V103.48H174.738V121H171.594V118.96C171.258 119.664 170.778 120.232 170.154 120.664C169.546 121.096 168.682 121.312 167.562 121.312ZM168.09 118.384C168.81 118.384 169.426 118.224 169.938 117.904C170.466 117.568 170.874 117.128 171.162 116.584C171.45 116.04 171.594 115.448 171.594 114.808C171.594 114.152 171.45 113.552 171.162 113.008C170.874 112.464 170.466 112.024 169.938 111.688C169.426 111.352 168.81 111.184 168.09 111.184C167.402 111.184 166.794 111.352 166.266 111.688C165.754 112.008 165.354 112.44 165.066 112.984C164.778 113.528 164.634 114.128 164.634 114.784C164.634 115.408 164.778 116 165.066 116.56C165.354 117.104 165.754 117.544 166.266 117.88C166.794 118.216 167.402 118.384 168.09 118.384ZM176.663 121V108.52H179.807V110.896C180.015 110 180.439 109.32 181.079 108.856C181.719 108.376 182.583 108.168 183.671 108.232V111.28H183.215C182.287 111.28 181.503 111.576 180.863 112.168C180.223 112.76 179.903 113.576 179.903 114.616V121H176.663ZM190.116 121.312C188.836 121.312 187.708 121.016 186.732 120.424C185.756 119.832 184.996 119.048 184.452 118.072C183.924 117.08 183.66 115.984 183.66 114.784C183.66 113.584 183.94 112.488 184.5 111.496C185.06 110.488 185.82 109.688 186.78 109.096C187.756 108.504 188.868 108.208 190.116 108.208C191.364 108.208 192.46 108.504 193.404 109.096C194.364 109.688 195.108 110.488 195.636 111.496C196.18 112.488 196.452 113.584 196.452 114.784C196.452 114.96 196.444 115.144 196.428 115.336C196.412 115.528 196.388 115.728 196.356 115.936H187.02C187.196 116.672 187.548 117.272 188.076 117.736C188.62 118.2 189.3 118.432 190.116 118.432C190.82 118.432 191.428 118.272 191.94 117.952C192.468 117.632 192.876 117.232 193.164 116.752L195.684 118.648C195.188 119.432 194.444 120.072 193.452 120.568C192.46 121.064 191.348 121.312 190.116 121.312ZM190.068 110.992C189.3 110.992 188.644 111.224 188.1 111.688C187.556 112.152 187.196 112.76 187.02 113.512H193.188C193.012 112.824 192.644 112.232 192.084 111.736C191.54 111.24 190.868 110.992 190.068 110.992ZM199.506 107.488C198.962 107.488 198.498 107.304 198.114 106.936C197.746 106.552 197.562 106.096 197.562 105.568C197.562 105.056 197.746 104.616 198.114 104.248C198.498 103.864 198.962 103.672 199.506 103.672C200.066 103.672 200.53 103.864 200.898 104.248C201.266 104.616 201.45 105.056 201.45 105.568C201.45 106.112 201.266 106.568 200.898 106.936C200.53 107.304 200.066 107.488 199.506 107.488ZM196.242 125.8V122.92H196.866C197.538 122.92 197.874 122.536 197.874 121.768V108.52H201.114V121.936C201.114 123.296 200.786 124.28 200.13 124.888C199.474 125.496 198.53 125.8 197.298 125.8H196.242ZM209.006 121.312C207.726 121.312 206.598 121.016 205.622 120.424C204.646 119.832 203.886 119.048 203.342 118.072C202.814 117.08 202.55 115.984 202.55 114.784C202.55 113.584 202.83 112.488 203.39 111.496C203.95 110.488 204.71 109.688 205.67 109.096C206.646 108.504 207.758 108.208 209.006 108.208C210.254 108.208 211.35 108.504 212.294 109.096C213.254 109.688 213.998 110.488 214.526 111.496C215.07 112.488 215.342 113.584 215.342 114.784C215.342 114.96 215.334 115.144 215.318 115.336C215.302 115.528 215.278 115.728 215.246 115.936H205.91C206.086 116.672 206.438 117.272 206.966 117.736C207.51 118.2 208.19 118.432 209.006 118.432C209.71 118.432 210.318 118.272 210.83 117.952C211.358 117.632 211.766 117.232 212.054 116.752L214.574 118.648C214.078 119.432 213.334 120.072 212.342 120.568C211.35 121.064 210.238 121.312 209.006 121.312ZM208.958 110.992C208.19 110.992 207.534 111.224 206.99 111.688C206.446 112.152 206.086 112.76 205.91 113.512H212.078C211.902 112.824 211.534 112.232 210.974 111.736C210.43 111.24 209.758 110.992 208.958 110.992ZM222.553 121.312C221.657 121.312 220.817 121.144 220.033 120.808C219.265 120.472 218.585 120.008 217.993 119.416C217.401 118.808 216.937 118.112 216.601 117.328C216.281 116.528 216.121 115.672 216.121 114.76C216.121 113.544 216.401 112.448 216.961 111.472C217.537 110.48 218.321 109.688 219.313 109.096C220.321 108.504 221.457 108.208 222.721 108.208C223.857 108.192 224.873 108.392 225.769 108.808C226.665 109.224 227.377 109.8 227.905 110.536L225.409 112.576C225.121 112.144 224.745 111.8 224.281 111.544C223.833 111.288 223.329 111.16 222.769 111.16C222.081 111.16 221.481 111.328 220.969 111.664C220.457 111.984 220.057 112.416 219.769 112.96C219.497 113.504 219.361 114.104 219.361 114.76C219.361 115.4 219.505 116 219.793 116.56C220.097 117.104 220.505 117.544 221.017 117.88C221.545 118.2 222.153 118.36 222.841 118.36C223.465 118.36 223.993 118.224 224.425 117.952C224.857 117.664 225.233 117.304 225.553 116.872L227.905 118.912C227.313 119.664 226.577 120.256 225.697 120.688C224.833 121.104 223.785 121.312 222.553 121.312ZM229.187 121V103.48H232.427V110.248C233.099 108.904 234.355 108.232 236.195 108.232C237.091 108.232 237.899 108.44 238.619 108.856C239.339 109.272 239.907 109.864 240.323 110.632C240.739 111.4 240.947 112.312 240.947 113.368V121H237.707V114.16C237.707 113.072 237.459 112.288 236.963 111.808C236.467 111.312 235.819 111.064 235.019 111.064C234.331 111.064 233.723 111.312 233.195 111.808C232.683 112.288 232.427 113.072 232.427 114.16V121H229.187Z" fill="#25261E"/>
<path d="M28.9808 170V80.8928H71.1632C82.6448 80.8928 91.2976 83.2224 97.1216 87.8816C102.946 92.5408 105.858 99.4464 105.858 108.598C105.858 118.083 102.862 125.155 96.872 129.814C90.8816 134.39 81.8128 136.678 69.6656 136.678H41.336V170H28.9808ZM70.04 125.821C77.8608 125.821 83.6432 124.406 87.3872 121.578C91.1312 118.666 93.0032 114.256 93.0032 108.349C93.0032 102.608 91.1728 98.4064 87.512 95.744C83.8512 93.0816 78.1104 91.7504 70.2896 91.7504H41.336V125.821H70.04ZM217.673 125.446C217.673 134.682 215.676 142.835 211.682 149.907C207.689 156.896 201.906 162.387 194.335 166.381C186.847 170.291 178.028 172.246 167.877 172.246C158.06 172.246 149.407 170.416 141.919 166.755C134.431 163.011 128.565 157.603 124.322 150.531C120.162 143.459 118.082 135.098 118.082 125.446C118.082 116.211 120.079 108.099 124.073 101.11C128.066 94.0384 133.807 88.5472 141.295 84.6368C148.866 80.6432 157.727 78.6464 167.877 78.6464C177.695 78.6464 186.348 80.5184 193.836 84.2624C201.324 87.9232 207.148 93.2896 211.308 100.362C215.551 107.434 217.673 115.795 217.673 125.446ZM204.818 125.446C204.818 114.131 201.573 105.354 195.084 99.1136C188.594 92.7904 179.525 89.6288 167.877 89.6288C156.313 89.6288 147.244 92.7904 140.671 99.1136C134.181 105.437 130.937 114.214 130.937 125.446C130.937 136.762 134.181 145.581 140.671 151.904C147.161 158.144 156.229 161.264 167.877 161.264C179.442 161.264 188.469 158.102 194.959 151.779C201.532 145.456 204.818 136.678 204.818 125.446Z" fill="white"/>
</svg>
